{"title":"The Guard 2011 DVDSCR XViD AC3 - IMAGiNE","uid":6664796,"size":1477281951,"categoryP":"video","categoryS":"movies","magnet":"?xt=urn:btih:30ed546b1bb128c51bad7ed0c607acfbae70e9c7&amp;dn=The+Guard+2011+DVDSCR+XViD+AC3+-+IMAGiNE&amp;tr=udp%3A%2F%2Ftracker.openbittorrent.com%3A80&amp;tr=udp%3A%2F%2Fopen.demonii.com%3A1337&amp;tr=udp%3A%2F%2Ftracker.coppersurfer.tk%3A6969&amp;tr=udp%3A%2F%2Fexodus.desync.com%3A6969","seeders":0,"leechers":1,"uploader":"TvTeam","files":5,"time":1315645537,"description":". \n  &lt;a href=&quot;\nhttp://www.torrenting.com/&quot; rel=&quot;nofollow&quot; target=&quot;_NEW&quot;&gt;\nhttp://www.torrenting.com/&lt;/a&gt;        :     Greatest Movie Tracker on The Net!!!\n &lt;a href=&quot;\nhttp://www.Torrenting.com&quot; rel=&quot;nofollow&quot; target=&quot;_NEW&quot;&gt;\nhttp://www.Torrenting.com&lt;/a&gt;          :     Once &amp; For all ;)\n\n\n               www . Torrenting . Com \n\n(((((((((((((= Enjoy No RAR releases =))))))))))))))))))))\n\n\n...................................NFO:....................................\n\n.  \n[pre]ooooo ooo        ooooo       .o.         .oooooo.     o8o  ooooo      ooo oooooooooooo \n      888' `88.       .888'      .888.       d8P'  `Y8b    `&quot;'  `888b.     `8' `888'     `8 \n      888   888b     d'888      .8&quot;888.     888           oooo   8 `88b.    8   888         \n      888   8 Y88. .P  888     .8' `888.    888           `888   8   `88b.  8   888oooo8    \n      888   8  `888'   888    .88ooo8888.   888     ooooo  888   8     `88b.8   888    &quot;    \n      888   8    Y     888   .8'     `888.  `88.    .88'   888   8       `888   888       o \n     o888o o8o        o888o o88o     o8888o  `Y8bood8P'   o888o o8o        `8  o888ooooood8  \n                                                \n\n\n\n                  Another Fine Release Brought to you from - IMAGiNE                   \n                                                 \n\n******************************************************************************************\n                       The Guard 2011 DVDSCR XViD AC3 - IMAGiNE               \n******************************************************************************************\n\nRipper ...........: IMAGiNE              IMDB Rating.......: 7.8/10                             \nVideo Codec.......: XViD                 Release Date......: 09/09/11\nAudio Codec.......: AC3                  Theatre Date......: 29/07/11\nAudio Bitrate.....: 256                  Runtime...........: 1h 36min\nSubtitles.........: NIL                  Language..........: ENGLISH\nResolution........: 720 x 384            IMDb URL..........: http://www.imdb.com/title/tt1540133/\n\n\n[color=yellow]DETAILS:[/color]\nVideo\nID                               : 0\nFormat                           : MPEG-4 Visual\nFormat profile                   : Advanced Simple@L5\nFormat settings, BVOP            : 2\nFormat settings, QPel            : No\nFormat settings, GMC             : No warppoints\nFormat settings, Matrix          : Default (H.263)\nMuxing mode                      : Packed bitstream\nCodec ID                         : XVID\nCodec ID/Hint                    : XviD\nDuration                         : 1h 36mn\nBit rate                         : 1 739 Kbps\nWidth                            : 720 pixels\nHeight                           : 384 pixels\nDisplay aspect ratio             : 1.875\nFrame rate                       : 25.000 fps\nColor space                      : YUV\nChroma subsampling               : 4:2:0\nBit depth                        : 8 bits\nScan type                        : Progressive\nCompression mode                 : Lossy\nBits/(Pixel*Frame)               : 0.252\nStream size                      : 1.17 GiB (87%)\nWriting library                  : XviD 64\n\nAudio\nID                               : 1\nFormat                           : AC-3\nFormat/Info                      : Audio Coding 3\nMode extension                   : CM (complete main)\nCodec ID                         : 2000\nDuration                         : 1h 36mn\nBit rate mode                    : Constant\nBit rate                         : 256 Kbps\nChannel(s)                       : 2 channels\nChannel positions                : Front: L R\nSampling rate                    : 48.0 KHz\nBit depth                        : 16 bits\nCompression mode                 : Lossy\nStream size                      : 177 MiB (13%)\nAlignment                        : Aligned on interleaves\nInterleave, duration             : 40 ms (1.00 video frame)\n\n\n\n[color=yellow]SOURCES:[/color]\n\nVIDEO: ............. Thanks \nAUDIO: ............. Matey :P\n\n[color=yellow]NOTES:[/color]\nHere we have a dvdscr of The Guard, \na very nice source if we do say so ourselves. \nPlease be patient and watch your emails. \nHaHaHa the serpant lives on\nEnjoy folks :D\n\n[color=yellow]SCREENS:[/color]\n\n[IMG]http://i.imgur.com/5S8Pf.jpg[/IMG]\n[IMG]http://i.imgur.com/igipd.jpg[/IMG]\n[IMG]http://i.imgur.com/WQR0k.jpg[/IMG]\n[IMG]http://i.imgur.com/WSXOV.jpg[/IMG]\n[IMG]http://i.imgur.com/xrHqm.jpg[/IMG]\n[IMG]http://i.imgur.com/HnfW4.jpg[/IMG]\n[IMG]http://i.imgur.com/xWnE3.jpg[/IMG]\n\n[color=yellow]GREETS:[/color]\n\nFLAWL3SS,KINOPARK,Rx,ELEKTRI4KA,ADDiCTED,Autotron,CiNEDUB,CRYS\nAnd to all the other p2p grps past and present \n\n[COLOR=RED]Looking for these,syncers,cammers,audio,silver supplier.....Have anything to offer????......\nContact us &lt;a class=&quot;__cf_email__&quot; href=&quot;/cdn-cgi/l/email-protection&quot; data-cfemail=&quot;3c55515d5b5552595b4e53494c7c54494f54515d5550125f5351&quot;&gt;[email&amp;#160;protected]&lt;/a&gt;&lt;script data-cfhash='f9e31' type=&quot;text/javascript&quot;&gt;\n/* &lt;![CDATA[ */!function(){try{var t=&quot;currentScript&quot;in document?document.currentScript:function(){for(var t=document.getElementsByTagName(&quot;script&quot;),e=t.length;e--;)if(t[e].getAttribute(&quot;data-cfhash&quot;))return t[e]}();if(t&amp;&amp;t.previousSibling){var e,r,n,i,c=t.previousSibling,a=c.getAttribute(&quot;data-cfemail&quot;);if(a){for(e=&quot;&quot;,r=parseInt(a.substr(0,2),16),n=2;a.length-n;n+=2)i=parseInt(a.substr(n,2),16)^r,e+=String.fromCharCode(i);e=document.createTextNode(e),c.parentNode.replaceChild(e,c)}t.parentNode.removeChild(t);}}catch(u){}}()/* ]]&gt; */&lt;/script&gt;[/COLOR]","torrent":{"xt":"urn:btih:30ed546b1bb128c51bad7ed0c607acfbae70e9c7","amp;dn":"The+Guard+2011+DVDSCR+XViD+AC3+-+IMAGiNE","amp;tr":["udp%3A%2F%2Ftracker.openbittorrent.com%3A80","udp%3A%2F%2Fopen.demonii.com%3A1337","udp%3A%2F%2Ftracker.coppersurfer.tk%3A6969","udp%3A%2F%2Fexodus.desync.com%3A6969"],"infoHash":"30ed546b1bb128c51bad7ed0c607acfbae70e9c7","infoHashBuffer":{"type":"Buffer","data":[48,237,84,107,27,177,40,197,27,173,126,208,198,7,172,251,174,112,233,199]},"announce":[],"urlList":[]}}